<svg width="356" height="200" viewBox="0 0 356 200" fill="none" xmlns="http://www.w3.org/2000/svg">
<path d="M160.513 58.5278C160.068 58.75 159.485 59.1389 159.235 59.3334C158.901 59.6389 158.651 59.6389 157.928 59.3889C157.178 59.0834 156.955 59.1111 156.288 59.6111C155.288 60.3056 153.509 63.8334 153.092 65.8889C152.786 67.3889 152.786 67.5278 153.398 68.1389C153.731 68.5278 154.426 69.0556 154.954 69.3334C155.649 69.6945 155.871 70 155.871 70.5556C155.816 72.1945 156.4 72.7223 161.931 75.9723L166.267 78.5278L165.266 79.1389C161.625 81.3889 162.487 85.7778 166.989 87.8334C167.934 88.2778 169.463 88.6945 170.38 88.8056C171.297 88.8889 172.048 89.0556 172.048 89.1945C172.048 89.6389 168.49 89.6945 139.639 89.8334L110.177 90L109.288 88.75C108.259 87.2778 108.204 87.0556 108.954 86.8056C110.928 86.1667 111.789 80 110.483 75.6111C110.011 74 107.565 70.1667 106.759 69.75C106.453 69.5834 105.397 69.4445 104.424 69.4445C103.062 69.4445 102.478 69.5834 101.922 70C100.783 70.8889 99.3097 74.1389 99.0873 76.1945C98.8928 77.8889 99.1985 80.6667 99.6432 81.7778C99.8656 82.25 99.7822 82.2778 98.5036 82.1111C96.0577 81.75 96.1411 81.9723 97.0027 79.0834C98.4758 74.1111 100.06 65.4445 99.5876 64.9723C99.4208 64.8056 98.5314 64.6111 97.5864 64.5278L95.8909 64.3611V63.3056C95.8909 62.2778 95.8632 62.25 94.6124 62.0556C92.5834 61.75 91.2215 62.0556 90.1653 63.0834C88.9979 64.1945 88.3586 65.75 87.1357 70.1945C85.6904 75.4723 84.6342 79.1389 84.4952 79.2778C84.4118 79.3334 82.1605 79.6111 79.4922 79.8334C76.8239 80.0834 73.433 80.4723 71.9877 80.7223C69.2638 81.1389 58.6463 83.4167 57.0065 83.9445C56.3394 84.1389 55.9225 84.1389 55.4778 83.9167C54.9775 83.6389 53.7267 83.7778 48.7793 84.6945C30.8797 87.9723 18.3166 89.7223 12.5075 89.7223C10.3951 89.7223 8.58849 89.8334 8.5051 89.9445C8.44951 90.0556 8.56069 91.2223 8.81084 92.5C9.14438 94.5 9.17217 95.6667 8.89422 100C8.72746 102.833 8.47731 106.194 8.31054 107.472L8.0326 109.833L5.11418 114.278L2.19576 118.722L2.36252 120.944C3.05738 129.611 3.78004 133.611 5.44771 137.917C7.14317 142.25 7.14317 142.389 6.14257 143.889C5.67007 144.556 5.39212 145.222 5.53109 145.361C6.17037 146 12.6743 146.944 20.9848 147.639C28.7117 148.278 31.3522 148.167 31.6301 147.167C31.7413 146.75 32.0192 146.667 33.6035 146.694C36.7999 146.75 36.8833 146.806 37.9117 149.306C43.9709 164 60.6753 170.972 75.4342 164.972C81.4656 162.528 87.1079 157.333 90.0263 151.583L90.9713 149.722H92.4166C95.0849 149.722 96.4468 150.028 96.4468 150.583C96.4468 151.083 97.5864 151.111 136.276 151.111C158.151 151.111 193.033 151.028 213.767 150.917C250.15 150.75 251.457 150.722 251.318 150.222C251.207 149.75 251.429 149.722 254.764 149.722L258.35 149.75L259.6 151.722C261.935 155.417 265.882 159.111 269.884 161.333C277.472 165.583 287.423 165.972 295.594 162.361C297.762 161.389 301.32 159.028 303.293 157.25C305.1 155.611 307.935 151.972 308.963 149.972L309.631 148.611H313.522C317.302 148.611 317.413 148.639 317.413 149.194V149.778L331.81 149.667C342.678 149.583 346.319 149.472 346.82 149.222C347.292 148.944 347.431 148.611 347.431 147.778C347.431 147.194 347.32 146.639 347.153 146.528C347.014 146.444 346.069 146.306 345.068 146.194C343.039 146 343.012 145.972 343.595 143.778C343.901 142.639 344.012 142.528 344.957 142.361C345.513 142.25 346.208 142 346.514 141.806C346.958 141.472 346.875 141.417 345.569 141.222L344.123 141.028L344.262 139.333C344.485 136.917 344.457 136.944 345.958 136.944C347.876 136.944 350.85 136.417 351.267 136C351.961 135.333 352.239 130.917 352.045 123.75C351.85 116.389 351.628 113.861 350.905 111.389C350.016 108.417 345.18 104.583 338.731 101.75C319.775 93.3889 280.696 87.6945 229.944 85.8334C222.55 85.5556 222.356 85.5556 221.355 84.8611C219.966 83.9167 217.937 83.3334 215.407 83.1389C213.489 83 213.072 82.8611 210.265 81.25C197.23 73.8611 173.187 62.2778 166.489 60.1389C165.655 59.8889 164.821 59.5 164.654 59.2778C164.265 58.8056 162.514 58.0556 161.847 58.0556C161.569 58.0834 160.986 58.2778 160.513 58.5278ZM54.1992 148.222C54.5606 148.583 54.5606 148.667 54.1992 148.889C53.6155 149.278 51.9479 149.722 51.114 149.722C49.9467 149.722 47.9177 148.917 47.2228 148.139L46.5557 147.444L50.169 147.639C52.6983 147.778 53.8935 147.944 54.1992 148.222ZM78.0469 149.194C79.6034 149.194 79.7979 149.25 79.2143 149.472C78.3804 149.833 75.9067 149.583 75.4898 149.139C75.2674 148.889 75.323 148.861 75.6844 149C75.9623 149.083 77.0463 149.167 78.0469 149.194ZM279.557 149.722C281.697 150.389 285.171 150.444 287.395 149.861C289.229 149.389 289.396 149.556 289.257 151.556C289.118 153.528 288.006 155.333 286.339 156.306C285.255 156.944 284.699 157.083 283.226 157.083C280.752 157.056 278.862 155.944 277.778 153.806C277.194 152.694 276.972 150.5 277.361 149.778C277.556 149.444 277.722 149.167 277.75 149.167C277.778 149.167 278.612 149.417 279.557 149.722ZM60.2584 151.944C62.3986 152.611 66.262 152.694 68.2354 152.083C68.9859 151.861 69.6808 151.75 69.8197 151.833C69.9309 151.917 70.0421 152.5 70.0421 153.111C70.0421 156.75 67.4294 159.444 63.8439 159.444C60.453 159.444 57.479 155.972 57.9793 152.556C58.0627 151.917 58.2294 151.389 58.3406 151.389C58.424 151.389 59.3134 151.639 60.2584 151.944Z" fill="black"/>
</svg>
